<svg xmlns="http://www.w3.org/2000/svg" xmlns:xlink="http://www.w3.org/1999/xlink" width="1878" height="2452.244" viewBox="0 0 1878 2452.244"><defs><style>.a{fill:#1f2f22;}.b{clip-path:url(#a);}</style><clipPath id="a"><rect class="a" width="1878" height="2452.244"/></clipPath></defs><g transform="translate(0 0.002)"><g class="b" transform="translate(0 -0.002)"><path class="a" d="M1802.938,994.042c-183.97,351.514-151.691,526.289-85.833,624.56,79.379,118.45,111.585,294.54,85.766,460.9-46.018,296.5-212.332,593.467-765.6,138.242,0,0-317.3-230.785-920.869-311.292,0,0-206.937-32.2-68.979-327.392,28.934-61.91,49.675-124.291,64.388-184.223,42.954-174.969,32.935-370.3-24.81-534.637C17.126,661.338-56.207,262.943,381.971,81.636,778.976-82.635,1043.14,35.852,1175.48,133.543c100.172,73.949,212.688,98.385,321.943,69.015q4.148-1.115,8.31-2.3c282.936-80.357,482.281,424.441,305.532,777.516q-4.07,8.129-8.326,16.263" transform="translate(0 0.002)"/></g></g></svg>