<svg xmlns="http://www.w3.org/2000/svg" xmlns:xlink="http://www.w3.org/1999/xlink" width="462.926" height="583.709" viewBox="0 0 462.926 583.709"><defs><style>.a,.e,.g{fill:none;}.b{clip-path:url(#a);}.c{fill:#b8a588;}.d{fill:#8a7165;}.e,.g{stroke:#1a1818;stroke-miterlimit:10;}.e{stroke-width:2px;}.f{fill:#1a1818;}.g{stroke-linecap:round;stroke-width:3px;}</style><clipPath id="a"><rect class="a" width="462.926" height="583.709"/></clipPath></defs><g class="b"><path class="c" d="M338.026,459.088c44.772-37.31,39.854-75.422,34.655-92.041a25.053,25.053,0,0,1,2.769-21.433c7.411-11.075,22.2-23.448,48.359-10.59a15.874,15.874,0,0,1,1.67.967q-.289-6.066-.851-12.183c-4.87-52.883-24.5-100.3-53.678-137.307a40.343,40.343,0,0,1-8.582-24.132q-.125-5.788-.663-11.64C354.316,70.488,290.6,8.983,213.06,1.359c-3.056,17.254-29.938,28.29-29.938,28.29S148.385,56.586,130.66,130.318,35.7,206.633,35.7,206.633a40.8,40.8,0,0,1-1.978,26.356C17.1,271.236,9.506,315.414,13.761,361.635c12,130.4,113.713,227.639,227.171,217.193,35.879-3.3,68.63-16.99,96.273-38.275-2.692-1.5-57.282-33.048.821-81.465" transform="translate(16.615 1.792)"/><path class="d" d="M255.552,149.336a16.3,16.3,0,0,0-1.67-.969c-26.159-12.856-40.948-.482-48.359,10.592a25.045,25.045,0,0,0-2.766,21.433c5.2,16.619,10.115,54.729-34.657,92.041-58.1,48.417-3.513,79.958-.821,81.465,57.034-43.914,92.3-120.2,88.273-204.562" transform="translate(186.542 188.449)"/><path class="d" d="M120.415,130.782c17.723-73.729,52.461-100.669,52.461-100.669s26.882-11.033,29.938-28.29A167.178,167.178,0,0,0,171.1,1.7C79.868,10.1,12.7,90.648,21.072,181.611A164.918,164.918,0,0,0,25.455,207.1s77.238-2.588,94.961-76.317" transform="translate(26.86 1.328)"/><path class="e" d="M425.478,336.467q-.289-6.066-.851-12.185c-4.87-52.883-24.5-100.3-53.678-137.307a40.324,40.324,0,0,1-8.58-24.13q-.129-5.788-.666-11.643C353.33,60.241,272.582-6.689,181.348,1.712S22.942,90.657,31.317,181.62A164.87,164.87,0,0,0,35.7,207.109a40.8,40.8,0,0,1-1.978,26.356C17.1,271.711,9.506,315.887,13.761,362.108c12,130.4,113.713,227.641,227.171,217.2,35.879-3.3,68.63-16.99,96.273-38.275C394.239,497.115,429.506,420.833,425.478,336.467Z" transform="translate(16.615 1.319)"/><path class="f" d="M96.18,79.765A15.951,15.951,0,1,1,80.229,63.814,15.952,15.952,0,0,1,96.18,79.765" transform="translate(84.771 84.16)"/><path class="g" d="M90.876,97.212s18.727,19.086,42.006,11.52c14.177-4.607,13.292-24.28,13.292-24.28" transform="translate(119.85 111.376)"/><path class="g" d="M268.646,112.884s90.39,35.093-28.712,56.361c0,0-63.364,8.447-101.69.088a1.283,1.283,0,0,1-.675-.4l-17.8-19.9" transform="translate(157.953 148.874)"/><path class="g" d="M117.017,138.187l21.753-.946a1.251,1.251,0,0,1,1.041,2.02l-13.224,17" transform="translate(154.325 180.995)"/><path class="g" d="M34.349,118.234S-56.041,153.327,63.06,174.6c0,0,63.364,8.448,101.69.088a1.283,1.283,0,0,0,.675-.4l17.8-19.9" transform="translate(1.978 155.93)"/><path class="g" d="M95.739,143.537l-21.755-.946a1.252,1.252,0,0,0-1.041,2.02l13.227,17" transform="translate(95.847 188.051)"/><path class="f" d="M149.836,72.885a15.951,15.951,0,1,1-15.951-15.951,15.952,15.952,0,0,1,15.951,15.951" transform="translate(155.534 75.086)"/></g></svg>