<svg xmlns="http://www.w3.org/2000/svg" xmlns:xlink="http://www.w3.org/1999/xlink" width="1878.001" height="2635.545" viewBox="0 0 1878.001 2635.545"><defs><style>.a{fill:#1f2f22;}.b{clip-path:url(#a);}</style><clipPath id="a"><rect class="a" width="1878.001" height="2635.545" transform="translate(0 0.005)"/></clipPath></defs><g transform="translate(0 -0.005)"><g class="b"><path class="a" d="M1774.788,2635.55c12.372-48.278,21.47-99.212,28.083-150.136,25.819-198.828-6.387-409.29-85.766-550.861-65.858-117.453-98.137-326.343,85.833-746.471h0q4.257-9.722,8.326-19.437c176.749-421.995-22.6-1025.326-305.532-929.284q-4.161,1.412-8.31,2.744c-109.255,35.1-221.771,5.9-321.943-82.487-132.34-116.76-396.5-258.375-793.509-62.039C-56.207,314.276,17.126,790.436,87,1028.1c57.745,196.418,67.764,429.877,24.81,639-14.713,71.631-35.454,146.188-64.388,220.183-137.958,352.81,68.979,391.3,68.979,391.3,518.715,82.694,825.994,298.046,902.141,356.964Z"/></g></g></svg>