<svg xmlns="http://www.w3.org/2000/svg" xmlns:xlink="http://www.w3.org/1999/xlink" width="2147.282" height="3399.03" viewBox="0 0 2147.282 3399.03"><defs><style>.a,.c{fill:#1f2f22;}.b{clip-path:url(#a);}.c{stroke:#5d5d5d;}</style><clipPath id="a"><rect class="a" width="2147.282" height="3399.03"/></clipPath></defs><g class="b"><path class="a" d="M103.759,114.531V436.475c0,97.236,43.891,189.032,118.736,252.989C267.6,728.009,835.535,1019,834,1218.252c-.436,56.657-27.784,369.726-49.5,422.247h0c-58.557,141.595-108.549,420.8,106.328,995.609,52.624,140.77,125.379,432.353,91.233,762.422h857.858c67.965-445.509-87.011-635-141.944-757.334-46.041-102.539-185.436-417.743-209.819-527.169-27.409-123.007-10.963-193.742-30.245-437.921-32.857-416.083,347.547-834.84,501.009-958.01,79.495-63.8,125.384-159.258,125.384-259.865v-343.7Z" transform="translate(3.16)"/><path class="c" d="M103.759,114.531V436.475c0,97.236,43.891,189.032,118.736,252.989C267.6,728.009,835.535,1019,834,1218.252c-.436,56.657-27.784,369.726-49.5,422.247h0c-58.557,141.595-108.549,420.8,106.328,995.609,52.624,140.77,125.379,432.353,91.233,762.422h857.858c67.965-445.509-87.011-635-141.944-757.334-46.041-102.539-185.436-417.743-209.819-527.169-27.409-123.007-10.963-193.742-30.245-437.921-32.857-416.083,347.547-834.84,501.009-958.01,79.495-63.8,125.384-159.258,125.384-259.865v-343.7Z" transform="translate(3.16)"/><path class="a" d="M0,0V336.031C0,436.517,46.763,532.719,128.3,599.969c9.655,7.964,38.874,24.808,83.1,50.3C297.847,700.1,442.53,783.509,562.5,873.359c143.484,107.461,215.955,197.116,215.4,266.474-.491,61.706-29.735,379.53-52.34,432.284-41.869,97.723-59.2,211.212-52.985,346.955,8.658,189.126,64.572,418.057,166.186,680.434,23.821,61.507,101.869,285.117,106.056,580.135a1674.493,1674.493,0,0,1-10.942,218.889h10.177A1673.076,1673.076,0,0,0,955.122,3179.5a1827.947,1827.947,0,0,0-37.915-343.638c-17.84-86.2-42.273-171.387-68.8-239.877C675.027,2148.3,636.9,1805.115,735.077,1575.957c13.684-31.936,27.95-149.592,35.237-216.884,10.766-99.425,17.669-191.175,17.893-219.162.315-39.6-21.407-85.241-64.565-135.666-36.114-42.2-88.213-88.9-154.847-138.8C448.33,775.221,303.311,691.623,216.665,641.675c-42.2-24.33-72.7-41.908-81.692-49.326C55.745,527,10.3,433.578,10.3,336.031V10H2109.8V358.4c0,102.525-47.977,198.491-131.63,263.292-85.246,66.04-226.07,205.392-342.4,380.783-64.9,97.857-114.476,195.421-147.337,289.983-38.647,111.211-54.088,218.4-45.891,318.586,8.733,106.743,10.582,181.359,12.066,241.313,2.037,82.226,3.383,136.547,20.263,209.665,26.286,113.866,177.979,444.416,223.844,543.013,8.994,19.334,20.183,39.733,33.14,63.353,69.238,126.224,181.086,330.179,114.169,730.142h11.061c18.6-111.061,24.705-215.065,18.159-309.923-14.218-206.017-83.619-332.537-134.292-424.919-12.871-23.465-23.988-43.73-32.843-62.768-45.765-98.378-197.11-428.143-223.182-541.084-16.657-72.157-17.993-126.086-20.016-207.719-1.488-60.077-3.34-134.846-12.1-241.864-35.72-436.607,382.473-865.072,531.786-980.746,42.112-32.622,76.678-74.509,99.962-121.134A337.485,337.485,0,0,0,2120.1,358.4V0Z"/><path class="a" d="M949.915,3398.53a1584.829,1584.829,0,0,0,9.208-196.637,1727.36,1727.36,0,0,0-38.005-334.258c-17.883-83.845-42.376-166.71-68.965-233.332C678.4,2198.971,640.187,1865.27,738.562,1642.469l-9.472-3.938c-41.979,95.075-59.356,205.487-53.126,337.546,8.68,183.963,64.725,406.637,166.58,661.838,23.87,59.808,102.081,277.244,106.277,564.12a1588.2,1588.2,0,0,1-9.082,196.5Z" transform="translate(20.551)"/><path class="a" d="M21.759,109.531V436.475c0,97.8,46.889,191.411,128.644,256.846,9.678,7.746,38.961,24.127,83.287,48.921,86.641,48.465,231.651,129.581,351.891,216.965,143.771,104.485,216.388,191.626,215.834,259.005-.223,27.1-7.459,118.821-17.877,212.175-12.324,110.443-24.921,186.308-34.559,208.143l9.472,3.938c13.724-31.09,28.028-145.545,35.332-211,10.792-96.7,17.714-185.947,17.937-213.172.317-38.571-21.471-83.012-64.757-132.089-36.2-41.043-88.419-86.464-155.2-135C471.023,863.459,325.677,782.156,238.836,733.578c-42.3-23.661-72.863-40.758-81.876-47.972-79.374-63.528-124.9-154.333-124.9-249.131V119.531H2136.316v338.7c0,99.636-48.065,192.913-131.871,255.912-85.442,64.231-226.591,199.766-343.19,370.351-65.06,95.183-114.751,190.084-147.693,282.067-38.747,108.194-54.227,212.477-46.008,309.953,8.752,103.8,10.6,176.369,12.091,234.674,2.042,79.986,3.39,132.826,20.314,203.964,26.363,110.815,178.4,432.27,224.371,528.153,9.016,18.808,20.232,38.648,33.219,61.622,68.4,121,178.307,315.456,117.134,693.6h11.059c16.484-101.873,21.7-197.476,15.466-285.059-14.254-200.418-83.826-323.491-134.624-413.354-12.9-22.817-24.038-42.523-32.911-61.031C1687.811,2543.427,1536.139,2222.77,1510,2112.9c-16.688-70.149-18.028-122.587-20.054-201.961-1.491-58.432-3.348-131.155-12.123-235.243-35.79-424.512,383.3-841.162,532.931-953.65,42.217-31.735,76.87-72.486,100.215-117.849a320.546,320.546,0,0,0,35.65-145.968v-348.7Z" transform="translate(0.663)"/></g></svg>