<svg xmlns="http://www.w3.org/2000/svg" xmlns:xlink="http://www.w3.org/1999/xlink" width="2052" height="5298" viewBox="0 0 2052 5298"><defs><style>.a{fill:none;stroke:#7993a0;stroke-width:10px;}.b{clip-path:url(#a);}</style><clipPath id="a"><rect class="a" width="2052" height="5298"/></clipPath></defs><g transform="translate(0 0.001)"><g class="b" transform="translate(0 -0.001)"><path class="a" d="M705.32,1525.968c22.5-52.521,50.84-365.59,51.292-422.247C758.2,904.465,169.758,613.478,123.023,574.933,45.476,510.976,0,419.18,0,321.944V0H2052.056V343.7c0,100.607-47.546,196.063-129.911,259.865-159,123.17-553.143,541.927-519.1,958.01,19.978,244.179,2.938,314.914,31.337,437.921,25.263,109.426,169.692,424.63,217.4,527.169,77.2,165.932,345.12,455.358-31.336,1339.654C1162.146,4942.854,1878.965,5298,1878.965,5298H868.367s-564.054-778.73-164.516-1411.333c338.011-535.181,198.4-1141.08,111.636-1365.089-222.636-574.813-170.838-854.014-110.167-995.609" transform="translate(0 0.001)"/></g></g></svg>