<svg xmlns="http://www.w3.org/2000/svg" xmlns:xlink="http://www.w3.org/1999/xlink" width="1922" height="5298" viewBox="0 0 1922 5298"><defs><style>.a{fill:#3e563e;}.b{clip-path:url(#a);}</style><clipPath id="a"><rect class="a" width="1922" height="5298"/></clipPath></defs><g transform="translate(0 0.001)"><g class="b" transform="translate(0 -0.001)"><path class="a" d="M660.618,1525.968c21.078-52.521,47.618-365.59,48.041-422.247C710.147,904.465,159,613.478,115.226,574.933,42.594,510.976,0,419.18,0,321.944V0H1922V343.7c0,100.607-44.533,196.063-121.678,259.865-148.926,123.17-518.086,541.927-486.2,958.01,18.712,244.179,2.752,314.914,29.351,437.921,23.662,109.426,158.937,424.63,203.617,527.169,72.305,165.932,323.247,455.358-29.35,1339.654C1088.491,4942.854,1759.879,5298,1759.879,5298H813.331s-528.3-778.73-154.089-1411.333C975.83,3351.485,845.067,2745.586,763.8,2521.577c-208.526-574.813-160.011-854.014-103.185-995.609" transform="translate(0 0.001)"/></g></g></svg>