<svg xmlns="http://www.w3.org/2000/svg" xmlns:xlink="http://www.w3.org/1999/xlink" width="1920.004" height="2223.209" viewBox="0 0 1920.004 2223.209"><defs><style>.a{fill:#1f2f22;}.b{clip-path:url(#a);}</style><clipPath id="a"><rect class="a" width="1920.004" height="2223.209" transform="translate(0 0.001)"/></clipPath></defs><g transform="translate(0 -0.001)"><g class="b"><path class="a" d="M1851.914,2223.21c3.173-151.7-30.9-301.018-96.407-408.227-67.33-110.194-100.331-306.173,87.753-700.335l0,0q4.352-9.12,8.512-18.236c180.7-395.913-23.1-961.955-312.365-871.849q-4.258,1.324-8.5,2.574c-111.7,32.932-226.73,5.531-329.143-77.389-135.3-109.539-405.37-242.4-811.254-58.2C-57.464,294.849,17.509,741.579,88.946,964.564c59.037,184.273,69.28,403.3,25.365,599.5-15.042,67.2-36.247,137.152-65.828,206.574C-92.56,2101.641,119,2137.752,119,2137.752c144.221,21.1,272.451,51.4,384.293,85.458Z"/></g></g></svg>