<svg xmlns="http://www.w3.org/2000/svg" xmlns:xlink="http://www.w3.org/1999/xlink" width="269.825" height="340.226" viewBox="0 0 269.825 340.226"><defs><style>.a,.e,.g{fill:none;}.b{clip-path:url(#a);}.c{fill:#b8a588;}.d{fill:#8a7165;}.e,.g{stroke:#1a1818;stroke-miterlimit:10;}.e{stroke-width:2px;}.f{fill:#1a1818;}.g{stroke-linecap:round;stroke-width:3px;}</style><clipPath id="a"><rect class="a" width="269.825" height="340.226"/></clipPath></defs><g class="b"><path class="c" d="M202.28,268.155c26.1-21.747,23.229-43.961,20.2-53.648a14.6,14.6,0,0,1,1.614-12.493c4.32-6.455,12.94-13.667,28.187-6.173a9.259,9.259,0,0,1,.973.564q-.168-3.536-.5-7.1c-2.838-30.824-14.281-58.464-31.288-80.032a23.515,23.515,0,0,1-5-14.066q-.073-3.374-.387-6.785a96.5,96.5,0,0,0-86.64-87.063c-1.781,10.057-17.45,16.489-17.45,16.489s-20.247,15.7-30.578,58.677-55.35,44.482-55.35,44.482a23.782,23.782,0,0,1-1.153,15.362,152.97,152.97,0,0,0-11.634,74.984c7,76,66.28,132.684,132.411,126.6A107.726,107.726,0,0,0,201.8,315.639c-1.569-.877-33.388-19.263.479-47.483" transform="translate(4.429 0.478)"/><path class="d" d="M207.954,146.648a9.5,9.5,0,0,0-.973-.565c-15.247-7.493-23.867-.281-28.187,6.174a14.6,14.6,0,0,0-1.612,12.493c3.029,9.687,5.9,31.9-20.2,53.648-33.865,28.221-2.048,46.6-.478,47.483,33.243-25.6,53.8-70.059,51.452-119.233" transform="translate(49.728 50.237)"/><path class="d" d="M78.682,76.649c10.33-42.975,30.578-58.677,30.578-58.677s15.669-6.431,17.45-16.489a97.443,97.443,0,0,0-18.484-.07C55.048,6.308,15.9,53.256,20.778,106.275a96.125,96.125,0,0,0,2.554,14.856s45.02-1.508,55.35-44.483" transform="translate(7.16 0.354)"/><path class="e" d="M253.253,196.533q-.168-3.536-.5-7.1c-2.838-30.824-14.281-58.464-31.288-80.032a23.5,23.5,0,0,1-5-14.064q-.075-3.374-.388-6.786C211.2,35.53,164.135-3.482,110.957,1.415S18.627,53.259,23.509,106.278a96.1,96.1,0,0,0,2.554,14.857A23.783,23.783,0,0,1,24.911,136.5a152.965,152.965,0,0,0-11.634,74.983c7,76.006,66.28,132.685,132.411,126.6A107.737,107.737,0,0,0,201.8,315.766C235.045,290.17,255.6,245.708,253.253,196.533Z" transform="translate(4.429 0.352)"/><path class="f" d="M82.873,73.111a9.3,9.3,0,1,1-9.3-9.3,9.3,9.3,0,0,1,9.3,9.3" transform="translate(22.598 22.435)"/><path class="g" d="M90.876,91.889s10.915,11.125,24.484,6.715c8.264-2.686,7.747-14.152,7.747-14.152" transform="translate(31.95 29.691)"/><path class="g" d="M206.544,112.884s52.686,20.455-16.735,32.851c0,0-36.933,4.924-59.272.051a.747.747,0,0,1-.393-.231l-10.376-11.6" transform="translate(42.107 39.687)"/><path class="g" d="M117.017,137.792l12.679-.551a.729.729,0,0,1,.607,1.177l-7.708,9.911" transform="translate(41.14 48.25)"/><path class="g" d="M20.646,118.234s-52.686,20.455,16.735,32.851c0,0,36.933,4.924,59.272.051a.748.748,0,0,0,.393-.231l10.376-11.6" transform="translate(0.527 41.568)"/><path class="g" d="M86.119,143.142l-12.68-.551a.73.73,0,0,0-.607,1.177l7.709,9.911" transform="translate(25.551 50.131)"/><path class="f" d="M136.529,66.231a9.3,9.3,0,1,1-9.3-9.3,9.3,9.3,0,0,1,9.3,9.3" transform="translate(41.462 20.016)"/></g></svg>