<svg xmlns="http://www.w3.org/2000/svg" xmlns:xlink="http://www.w3.org/1999/xlink" width="2048" height="5448" viewBox="0 0 2048 5448"><defs><style>.a{fill:none;stroke:#93a889;stroke-width:10px;}.b{clip-path:url(#a);}</style><clipPath id="a"><rect class="a" width="2048" height="5448" transform="translate(-0.241 -0.113)"/></clipPath></defs><g transform="translate(0.241 0.466)"><g class="b" transform="translate(0 -0.354)"><path class="a" d="M703.733,1569.037c22.454-54,50.726-375.908,51.176-434.165,1.585-204.88-585.533-504.08-632.163-543.713C45.374,525.4,0,431.011,0,331.031V0H2047.438V353.4c0,103.447-47.439,201.6-129.619,267.2-158.646,126.646-551.9,557.223-517.933,985.049,19.933,251.071,2.932,323.8,31.267,450.281,25.206,112.515,169.31,436.615,216.906,542.048,77.024,170.616,344.344,468.21-31.265,1377.465C1159.531,5082.361,1874.737,5447.53,1874.737,5447.53H866.413S303.628,4646.821,702.267,3996.364c337.25-550.286,197.953-1173.286,111.385-1403.617C591.517,2001.71,643.2,1714.628,703.733,1569.037" transform="translate(0 0.358)"/></g></g></svg>