<svg xmlns="http://www.w3.org/2000/svg" xmlns:xlink="http://www.w3.org/1999/xlink" width="2080.413" height="2572.959" viewBox="0 0 2080.413 2572.959"><defs><style>.a{fill:#1f2f22;}.b{clip-path:url(#a);}</style><clipPath id="a"><rect class="a" width="2080.413" height="2572.959" transform="translate(0 0.001)"/></clipPath></defs><g transform="translate(0 -0.001)"><g class="b"><path class="a" d="M1999.471,2572.96c24.233-201.944-11.869-413.076-97.294-556.437-72.956-122.428-108.716-340.168,95.084-778.1q4.715-10.133,9.224-20.261c195.8-439.876-25.032-1068.774-338.463-968.662q-4.606,1.472-9.206,2.861c-121.03,36.589-245.673,6.146-356.642-85.982-146.6-121.707-439.238-269.325-879.033-64.668C-62.265,327.591,18.972,823.928,96.378,1071.665c63.969,204.737,75.068,448.089,27.484,666.073-16.3,74.666-39.276,152.383-71.328,229.514-152.827,367.757,76.414,407.878,76.414,407.878,290.511,43.58,521.141,122.5,689.1,197.83Z"/></g></g></svg>