<svg xmlns="http://www.w3.org/2000/svg" width="31.5" height="34.544" viewBox="0 0 31.5 34.544"><defs><style>.a{fill:#091008;}</style></defs><path class="a" d="M29.672,15.9H21.938V9.145H19.406a6.006,6.006,0,0,0,1.2-3.626,5.753,5.753,0,0,0-2.4-4.766L17.577.331l-.628.423a5.752,5.752,0,0,0-2.4,4.766,6.006,6.006,0,0,0,1.2,3.626H12.938V15.9H6.328A4.083,4.083,0,0,0,2.25,19.973V32.625a2.253,2.253,0,0,0,2.25,2.25h27a2.253,2.253,0,0,0,2.25-2.25V19.973A4.083,4.083,0,0,0,29.672,15.9ZM17.577,3.2a3.714,3.714,0,0,1,.778,2.317,3.714,3.714,0,0,1-.778,2.317A3.715,3.715,0,0,1,16.8,5.52,3.714,3.714,0,0,1,17.577,3.2ZM15.188,11.4h4.5v4.5h-4.5ZM4.5,19.973a1.83,1.83,0,0,1,1.828-1.828H29.672A1.83,1.83,0,0,1,31.5,19.973v2.22l-1.519.67a2.34,2.34,0,0,1-1.885,0L25.453,21.7l-2.644,1.166a2.34,2.34,0,0,1-1.885,0L18.281,21.7l-2.644,1.166a2.34,2.34,0,0,1-1.885,0L11.109,21.7,8.466,22.864a2.34,2.34,0,0,1-1.885,0L4.5,21.946Zm27,12.652H4.5V24.4l1.173.517a4.6,4.6,0,0,0,3.7,0l1.735-.766,1.735.766a4.6,4.6,0,0,0,3.7,0l1.735-.766,1.735.766a4.6,4.6,0,0,0,3.7,0l1.735-.766,1.735.766a4.6,4.6,0,0,0,3.7,0l.611-.27v7.972Z" transform="translate(-2.25 -0.331)"/></svg>